<?xml version="1.0" encoding="iso-8859-1"?>
<!-- Generator: Adobe Illustrator 19.0.0, SVG Export Plug-In . SVG Version: 6.00 Build 0)  -->
<svg version="1.1" id="Layer_1" xmlns="http://www.w3.org/2000/svg" xmlns:xlink="http://www.w3.org/1999/xlink" x="0px" y="0px"
	 viewBox="0 0 512 512" style="enable-background:new 0 0 512 512;" xml:space="preserve">
<circle style="fill:#FFD15D;" cx="256" cy="256" r="256"/>
<path style="fill:#F9B54C;" d="M288.02,509.988c54.474-6.828,107.173-31.144,148.999-72.969
	c49.055-49.055,74.023-113.064,74.936-177.354L405.118,152.828l-19.504,3.736l-48.685-48.685l-21.168-2.432h-49.993v199.742
	l-109.265,73.283L288.02,509.988z"/>
<path style="fill:#FC6F58;" d="M272.148,89.567h26.593c0,0,31.966,2.015,53.188,36.667c21.223,34.652,53.189,26.593,53.189,26.593
	s-52.652,24.983-79.782,0s-53.188,0-53.188,0V89.567z"/>
<path style="fill:#324A5E;" d="M273.358,89.567h-26.595v199.234c-16.917-7.949-39.45-7.821-60.432,2.107
	c-33.19,15.705-49.911,49.962-37.345,76.514c12.564,26.552,49.655,35.345,82.846,19.64c25.888-12.25,41.753-35.787,41.519-58.151
	h0.005V89.567H273.358z"/>
<path style="fill:#2B3B4E;" d="M147.916,331.278c-4.303,12.091-4.287,24.817,1.072,36.145c12.564,26.552,49.655,35.345,82.846,19.64
	c24.978-11.819,40.579-34.142,41.438-55.786H147.916z"/>
<g>
</g>
<g>
</g>
<g>
</g>
<g>
</g>
<g>
</g>
<g>
</g>
<g>
</g>
<g>
</g>
<g>
</g>
<g>
</g>
<g>
</g>
<g>
</g>
<g>
</g>
<g>
</g>
<g>
</g>
</svg>
